<svg xmlns="http://www.w3.org/2000/svg" viewBox="0 0 470.44 134.73"><defs><style>.cls-1{fill:#ebe8e5;}</style></defs><title>hemp</title><g id="Layer_2" data-name="Layer 2"><g id="NAV"><path class="cls-1" d="M170.71,8.94V7.61c0-2.61-1.68-4.14-4.58-4.14-3.61,0-5.43,2.21-5.43,5.29v7.72c0,3,1.86,5.22,5.51,5.22,2.89,0,4.43-1.57,4.43-4.18V16.2h3.9v1.64c0,4-3.11,7.33-8.48,7.33-6.25,0-9.33-4.15-9.33-8.94V9c0-4.83,3.18-9,9.4-9,5.26,0,8.48,3.29,8.48,7.29V8.94Zm19.7,15.55h-9.76V.68h9.55c5,0,7,2.39,7,6v.71c0,2.76-1.32,4.47-3.89,4.94a4.61,4.61,0,0,1,4.21,4.9v1.28C197.52,22.09,195.38,24.49,190.41,24.49Zm2.93-17.66c0-1.58-.75-2.83-3-2.83h-5.68v7.05H190c2.28,0,3.39-1.18,3.39-3.15Zm.14,10.33c0-2-1.07-3.15-3.39-3.15h-5.47V21.2h5.86c2.25,0,3-1.25,3-2.79Zm19.31,7.33h-8.87V.68h8.87c5.94,0,9,3.65,9,8.15v7.51C221.76,20.84,218.73,24.49,212.79,24.49Zm5-15.34c0-3-1.82-5-5.29-5h-4.68V21h4.68c3.47,0,5.29-1.94,5.29-4.94Zm9.94,6.12V12.19h9.65v3.08ZM247.65,4.15V11h8.29v3.36h-8.29V24.49h-3.94V.68h14.88V4.15ZM280.5,24.7c-2.68,0-3.61-1.07-3.64-3.64l0-3.51c0-2-.89-3.18-3.54-3.18H268.1V24.49h-3.93V.68h9.22c5.33,0,7.4,2.47,7.4,6V7.9c0,2.65-1,4.4-4.22,5a4.31,4.31,0,0,1,4.22,4.68l0,3.22a1.55,1.55,0,0,0,1.25,1.72V24.7ZM276.79,6.83c0-1.54-.79-2.83-3.22-2.83H268.1v7.48h5.25c2.29,0,3.44-1.18,3.44-3.19Zm10.9,17.66V.68h15.05v3.5H291.62V10.4h8.22v3.29h-8.22V21h11.12v3.5Zm21.16,0V.68h15.06v3.5H312.79V10.4H321v3.29h-8.22V21h11.12v3.5ZM49.12,132.65l-.41-3.15H46.36l-.48,3.15H43.53l2.69-16.13h2.83l2.69,16.13Zm-1.5-11.89-.94,6.58h1.74Zm11.6,11.89h-2.5l-2.9-16.13h2.64L58,127.8l1.67-11.28h2.47Zm10.61,0-.42-3.15H67.06l-.48,3.15H64.23l2.69-16.13h2.83l2.69,16.13Zm-1.51-11.89-.94,6.58h1.74Zm7.53,11.89V116.52h2.57v16.13Zm6.81,0V116.52h2.56v13.8h3.71v2.33Zm9.85,0V116.52h2.57v16.13Zm11,0H99.31V116.52h4.17a2.82,2.82,0,0,1,3.1,3.12V122a2.23,2.23,0,0,1-1.6,2.42,2.27,2.27,0,0,1,1.65,2.42v2.69A2.82,2.82,0,0,1,103.53,132.65Zm.58-12.89c0-.67-.29-1-.9-1h-1.3v4.8h1.21c.63,0,1-.37,1-1.12Zm0,6.86c0-.73-.36-1.14-1-1.14h-1.23v5h1.35c.61,0,.87-.36.87-1Zm6.49,6V116.52h2.57v13.8h3.7v2.33Zm9.86,0V116.52h6.44v2.27H123v4.46h2.69v2.13H123v4.92h3.88v2.35Zm15.85,0V116.52h2.57v16.13Zm12.72,0-2.71-7.32-.9-2.47v9.79h-2.32V116.52h2.27l2.52,7.38.82,2.5v-9.88H151v16.13Zm15.54.29a3.71,3.71,0,0,1-3.9-3.85v-9a3.71,3.71,0,0,1,3.9-3.85,3.42,3.42,0,0,1,3.66,3.7v2.33H166v-2.38a1.33,1.33,0,0,0-2.66,0v9.44a1.33,1.33,0,0,0,2.66,0v-2.4h2.28v2.35A3.43,3.43,0,0,1,164.59,132.94Zm12.25-.29-.41-3.15h-2.35l-.48,3.15h-2.35l2.69-16.13h2.83l2.69,16.13Zm-1.5-11.89-.94,6.58h1.74Zm7.53,11.89V116.52h2.57v13.8h3.7v2.33Zm9.86,0V116.52h2.56v16.13Zm9.37-13.9v4.65h2.78v2.2H202.1v7.05h-2.57V116.52h6.27v2.23Zm11,14.19a3.65,3.65,0,0,1-3.85-3.83v-9.06a3.85,3.85,0,0,1,7.7,0v9.06A3.64,3.64,0,0,1,213.11,132.94Zm1.26-13.08a1.26,1.26,0,1,0-2.51,0v9.44a1.26,1.26,0,1,0,2.51,0Zm12.91,12.86c-1,0-1.38-1-1.38-2.23V127a1.05,1.05,0,0,0-1-1.19H223.6v6.81H221V116.52h4.12a2.91,2.91,0,0,1,3.17,3.17v2.86a2.23,2.23,0,0,1-1.53,2.28,2.26,2.26,0,0,1,1.58,2.22v3.3a2.58,2.58,0,0,0,.48,1.64v.73Zm-1.48-13c0-.67-.26-1-.87-1H223.6v5.11h1.23c.63,0,1-.36,1-1.14Zm12.57,12.89-2.71-7.32-.9-2.47v9.79h-2.32V116.52h2.27l2.52,7.38.82,2.5v-9.88h2.3v16.13Zm6.2,0V116.52h2.56v16.13Zm11.59,0-.41-3.15H253.4l-.48,3.15h-2.35l2.69-16.13h2.83l2.69,16.13Zm-1.5-11.89-.94,6.58h1.74Zm7.56,14v-.63c.65,0,1.09-.46,1.09-1.45h-.95v-2.86h2v2.59A2.1,2.1,0,0,1,262.22,134.73ZM280,132.65l-2.71-7.32-.9-2.47v9.79h-2.32V116.52h2.28l2.51,7.38.83,2.5v-9.88H282v16.13Zm6.2,0V116.52h6.44v2.27h-3.87v4.46h2.68v2.13h-2.68v4.92h3.87v2.35Zm14.87,0h-2.5l-2.9-16.13h2.64l1.57,11.28,1.67-11.28H304Zm10.6,0-.41-3.15h-2.35l-.48,3.15h-2.35l2.69-16.13h2.83l2.69,16.13Zm-1.5-11.89-.94,6.58H311Zm11.45,11.89h-3.92V116.52h3.92c2.33,0,3.69,1.45,3.69,3.85v8.52C325.32,131.31,324,132.65,321.63,132.65Zm1.12-12.31c0-1-.39-1.52-1.29-1.52h-1.18v11.55h1.18c.9,0,1.29-.53,1.29-1.53Zm11.31,12.31-.41-3.15H331.3l-.49,3.15h-2.35l2.69-16.13H334l2.68,16.13Zm-1.5-11.89-.95,6.58h1.75ZM354,132.94a3.16,3.16,0,0,1-2.2-1.14,4.1,4.1,0,0,1-2.86,1.14c-2.08,0-3.54-1.75-3.54-4a6.34,6.34,0,0,1,2.64-5,10.27,10.27,0,0,1-.77-3.61c0-2.49,1.3-4,3.31-4s2.84,1.48,2.84,3.44-1,3.36-2.81,4.79a27.28,27.28,0,0,0,1.4,3.85,9.11,9.11,0,0,0,1-3.92h1.89a11.79,11.79,0,0,1-1.72,5.74,1.33,1.33,0,0,0,1,.68c.41,0,.63-.32.63-.83v-1h1.28v1.35C356.09,132,355.32,132.94,354,132.94Zm-5.21-6.86a3.58,3.58,0,0,0-1,2.57c0,1.33.58,2.08,1.62,2.08a1.45,1.45,0,0,0,1.09-.48A18.83,18.83,0,0,1,348.8,126.08Zm1.75-7.65c-.66,0-1,.63-1,1.7a9.69,9.69,0,0,0,.43,2.52,4.07,4.07,0,0,0,1.45-2.86C351.39,118.94,351.15,118.43,350.55,118.43ZM370,132.65l-.41-3.15h-2.35l-.49,3.15h-2.35l2.69-16.13H370l2.69,16.13Zm-1.5-11.89-1,6.58h1.74Zm13.77,12c-1,0-1.38-1-1.38-2.23V127a1.05,1.05,0,0,0-1-1.19h-1.26v6.81h-2.57V116.52h4.12a2.91,2.91,0,0,1,3.17,3.17v2.86a2.23,2.23,0,0,1-1.52,2.28,2.26,2.26,0,0,1,1.57,2.22v3.3a2.53,2.53,0,0,0,.49,1.64v.73Zm-1.48-13c0-.67-.26-1-.87-1h-1.33v5.11h1.24c.63,0,1-.36,1-1.14Zm6.66,12.89V116.52h2.57v16.13Zm9.18-2.33h4.14v2.33h-7.14v-.9l4.38-12.93h-4.12v-2.3H401v.9Zm11.65,2.62a3.64,3.64,0,0,1-3.85-3.83v-9.06a3.85,3.85,0,0,1,7.7,0v9.06A3.65,3.65,0,0,1,408.32,132.94Zm1.26-13.08a1.26,1.26,0,1,0-2.52,0v9.44a1.26,1.26,0,1,0,2.52,0Zm12.56,12.79-2.71-7.32-.89-2.47v9.79h-2.33V116.52h2.28L421,123.9l.83,2.5v-9.88h2.3v16.13Zm11,0-.41-3.15h-2.35l-.48,3.15h-2.35l2.69-16.13h2.83l2.69,16.13Zm-1.5-11.89-.94,6.58h1.74ZM15.53,45.45l-2.5,3V60.89H32.4V48.48l-2.5-3H45.34l-2.5,3V93.29l2.5,2.94H29.9l2.5-2.94V70.88H13V93.29l2.5,2.94H0l2.5-2.94V48.48l-2.5-3ZM82.38,66.6l2.94-2.5v15l-2.94-2.58H69.17v9.72H91.39l3-2.49V96.23H56.14l2.5-2.94V48.48l-2.5-3H92.91V57.94l-3-2.5H69.17V66.6ZM161.1,45.45l-2.5,3V93.29l2.5,2.94H145.66l2.5-2.94V72.22L137.71,93.29l2.68,2.94H125.93l2.68-2.94L118.17,71.87V93.29l2.5,2.94H105.14l2.5-2.94V48.48l-2.5-3h15.53l-1.61,1.87,14.19,29.1,14.28-28.65-1.87-2.32Zm54,8.39-.81,1.51V65.71l.81,1.43-10.89,8.38H184.93V93.29l3,2.94H171.9l2.5-2.94V48.48l-2.5-3h32.31Zm-30.17,1.6V65.53h15.62l3.21-2.41V57.85l-3.21-2.41Zm92.55,30.79,2.95-2.49V96.23h-30l-10.89-8.39.81-1.43V55.35l-.81-1.51,10.89-8.39h28.47V57.94l-3-2.5H254.1l-3.21,2.41v26l3.21,2.4Zm29.9-40.78-2.5,3V93.29l2.5,2.94H291.85l2.5-2.94V48.48l-2.5-3Zm55.16,8.39-.8,1.51V86.41l.8,1.43-10.89,8.39H318.18l2.5-2.94V48.48l-2.5-3h33.47Zm-31.33,1.6V86.23H348l3.22-2.4v-26L348,55.44ZM400.65,66.6l2.94-2.5v15l-2.94-2.58H387.44v9.72h22.22l3-2.49V96.23H374.41l2.5-2.94V48.48l-2.5-3h36.77V57.94l-3-2.5H387.44V66.6Zm66-12.76-.81,1.51V65.71l.81,1.51-10.45,8,10.36,18,3.92,2.94h-19.1l2.86-2.94L443.94,75.52h-7.5V93.29l3,2.94H423.41l2.5-2.94V48.48l-2.5-2.94h32.31Zm-30.17,1.6V65.62h15.62l3.21-2.5V57.94l-3.21-2.5Z"/></g></g></svg>