<svg xmlns="http://www.w3.org/2000/svg" viewBox="0 0 102.94 10.58"><defs><style>.cls-1{fill:#212721;}</style></defs><title>Asset 1</title><g id="Layer_2" data-name="Layer 2"><g id="FRONT"><path class="cls-1" d="M60,8.49,60.61,8v2.61H53.93L51.51,8.83l.18-.3V2.06l-.18-.31L53.93,0h6.34V2.6l-.65-.52H54.75l-.72.5V8l.72.5ZM66.62,0l-.56.63V10l.56.62H63.16l.56-.62V.63L63.16,0ZM78.91,1.75l-.18.31V8.53l.18.3-2.43,1.75H69l.56-.62V.63L69,0h7.46Zm-7,.33V8.49h3.74l.71-.5V2.58l-.71-.5ZM87.4,4.41l.65-.53V7l-.65-.54h-3v2h5L90.08,8v2.61H81.55l.56-.62V.63L81.55,0h8.19V2.6l-.67-.52H84.45V4.41Zm14.69-2.66-.18.31V4.22l.18.32L99.76,6.21,102.07,10l.87.62H98.69l.64-.62L97,6.26H95.37V10l.68.62H92.47L93,10V.63L92.47,0h7.19Zm-6.72.33V4.2h3.48l.71-.52V2.6l-.71-.52ZM3.21.08,2.69.71V3.27h4V.71L6.18.08H9.37L8.85.71V10l.52.61H6.18L6.7,10V5.34h-4V10l.52.61H0L.52,10V.71L0,.08ZM17.58,4.45l.61-.51V7l-.61-.53H14.85v2h4.59L20.07,8v2.59H12.16l.51-.61V.71L12.16.08h7.59V2.66l-.62-.51H14.85v2.3ZM34.4.08l-.52.63V10l.52.61H31.21l.52-.61V5.61L29.57,10l.55.61h-3l.56-.61L25.53,5.54V10l.51.61h-3.2l.51-.61V.71L22.84.08H26l-.33.39,2.94,6,3-5.92L31.21.08ZM46.11,1.81,46,2.13V4.27l.16.29L43.86,6.3h-4V10l.63.61H37.19L37.7,10V.71L37.19.08h6.67Zm-6.23.34V4.23h3.23l.66-.5V2.64l-.66-.49Z"/></g></g></svg>